<svg width="42" height="34" viewBox="0 0 42 34" fill="none" xmlns="http://www.w3.org/2000/svg">
<path d="M42 4.0256C40.4382 4.70802 38.7739 5.16218 37.0404 5.38094C38.824 4.31965 40.1864 2.65203 40.8264 0.638833C39.1625 1.62879 37.3245 2.32548 35.3664 2.71543C33.7873 1.03989 31.5352 0 29.0768 0C24.3117 0 20.4731 3.85757 20.4731 8.58223C20.4731 9.26149 20.5301 9.91459 20.6723 10.5376C13.5133 10.1896 7.1787 6.77273 2.92438 1.56696C2.18195 2.84938 1.746 4.31965 1.746 5.90088C1.746 8.87311 3.28038 11.5061 5.56973 13.0311C4.18689 13.0049 2.82951 12.6047 1.67877 11.9745V12.0697C1.67877 16.2371 4.66521 19.6992 8.57884 20.4973C7.87618 20.6876 7.11406 20.7795 6.32171 20.7795C5.76881 20.7795 5.21333 20.7478 4.69027 20.6329C5.8064 24.0307 8.97223 26.5266 12.7359 26.609C9.80694 28.8925 6.08782 30.2685 2.05984 30.2685C1.35499 30.2685 0.677397 30.2368 0 30.1504C3.81359 32.6003 8.33461 34 13.2094 34C29.0545 34 37.7178 20.9237 37.7178 9.58962C37.7178 9.20997 37.7031 8.843 37.6854 8.48078C39.3942 7.27207 40.8292 5.76297 42 4.0256Z" fill="white"/>
</svg>
