<svg width="18" height="16" viewBox="0 0 18 16" fill="none" xmlns="http://www.w3.org/2000/svg">
<g clip-path="url(#clip0_0_92)">
<path d="M6.87303 0.0342158C6.81037 0.104377 6.74903 0.175862 6.68478 0.2447C5.58856 1.42182 4.74248 2.76018 4.14307 4.25104C3.83346 5.02149 3.6571 5.82477 3.68301 6.66247C3.6883 6.829 3.70628 6.99501 3.71871 7.16419C3.93367 7.15466 4.13461 7.13824 4.3353 7.13824C6.44602 7.13877 8.26723 8.77525 8.50017 10.8782C8.75267 13.1578 7.22812 15.1848 4.97541 15.564C2.66903 15.9521 0.450957 14.3254 0.10697 12.0141C0.0239471 11.4562 -0.0210013 10.901 0.00966939 10.341C0.052767 9.56238 0.229652 8.80729 0.471052 8.06834C0.916041 6.70536 1.58392 5.45173 2.37739 4.26454C2.98076 3.36171 3.62617 2.49118 4.41885 1.74006C5.10101 1.09378 5.86751 0.563735 6.66918 0.0808135C6.72364 0.0479833 6.78499 0.0262731 6.84289 -0.000732422C6.85294 0.0106522 6.86298 0.0223017 6.87277 0.0336863L6.87303 0.0342158Z" fill="#83C2D2"/>
<path d="M16.3392 0.0869675C16.2768 0.156864 16.216 0.228349 16.1518 0.296657C15.0881 1.43089 14.2708 2.72636 13.6672 4.15526C13.3232 4.9694 13.122 5.82086 13.1487 6.71416C13.1537 6.8807 13.1719 7.0467 13.1849 7.22277C13.2973 7.21535 13.3964 7.2082 13.4958 7.20212C15.7099 7.06497 17.644 8.64135 17.9574 10.8381C18.2887 13.16 16.67 15.303 14.3382 15.6297C12.0435 15.9514 9.93222 14.3599 9.5721 12.0565C9.48776 11.5166 9.44757 10.9786 9.47374 10.4364C9.51182 9.64373 9.69161 8.87566 9.93645 8.12401C10.3806 6.76103 11.0488 5.50739 11.8423 4.31994C12.443 3.42082 13.0857 2.55347 13.8739 1.8042C14.5582 1.15368 15.3281 0.620988 16.1335 0.135683C16.1898 0.101794 16.2546 0.0814076 16.3154 0.0549316L16.3392 0.0872323V0.0869675Z" fill="#83C2D2"/>
</g>
<defs>
<clipPath id="clip0_0_92">
<rect width="18" height="15.6706" fill="white"/>
</clipPath>
</defs>
</svg>
